# xmcd
#
# Track frame offsets: 
#        150
#        25402
#        45915
#        63508
#        80498
#        97910
#        117475
#        133805
#        147812
#        164843
#
# Disc length: 2495 seconds
#
# Revision: 7
# Processed by: cddbd v1.5.2PL0 Copyright (c) Steve Scherf et al.
# Submitted via: ExactAudioCopy v0.99pb5
#
DISCID=8909bd0a
DTITLE=Melina Kana Andreas Karakotas Tereza Danezh - GENNAIOI ERWTES
DYEAR=1997
DGENRE=Blues
TTITLE0=Argonautes Pezonautes
TTITLE1=Eisai glyko tou koutaliou
TTITLE2=Ax na perasei o pyretos
TTITLE3=Ena ploio h Rebecca
TTITLE4=Tessera filia
TTITLE5=H vuxta exei onoma
TTITLE6=To mysthrio me mena
TTITLE7=Etsi eimaste oi antres
TTITLE8=Ta fwta sto diasthma
TTITLE9=Topos xronos 8a ypar3ei
EXTD=YEAR: 1997
EXTT0=
EXTT1=
EXTT2=
EXTT3=
EXTT4=
EXTT5=
EXTT6=
EXTT7=
EXTT8=
EXTT9=
PLAYORDER=
